<?xml version="1.0" encoding="utf-8"?>
<!-- Generator: Adobe Illustrator 21.1.0, SVG Export Plug-In . SVG Version: 6.00 Build 0)  -->
<svg version="1.1" id="Layer_1" xmlns="http://www.w3.org/2000/svg" xmlns:xlink="http://www.w3.org/1999/xlink" x="0px" y="0px"
	 viewBox="0 0 141.7 141.7" style="enable-background:new 0 0 141.7 141.7;" xml:space="preserve">
<style type="text/css">
	.st0{fill:#282560;}
</style>
<g>
	<g>
		<path class="st0" d="M68.6,14.6c2.2,0,4.3,0,6.5,0c0.5,0.1,1.1,0.4,1.6,0.4c22.3,2,40.9,17.2,47.3,38.8c1.1,3.6,1.6,7.4,2.4,11.1
			c0,3,0,6,0,9c-0.2,0.6-0.4,1.2-0.5,1.9c-1.7,13.8-7.7,25.6-18.4,34.5c-18.3,15.1-38.5,17.6-60.1,7.9c-1.6-0.7-2.9-1-4.7-0.4
			c-5.6,1.9-11.2,3.6-16.8,5.4c-3.4,1.1-6.8,2.4-10.2,3.6c-0.2,0-0.3,0-0.5,0c0.2-0.8,0.2-1.6,0.5-2.4c2.8-8.3,5.6-16.6,8.3-25
			c0.3-1,0.1-2.4-0.3-3.4C22,90.4,19.1,85,18,79.4c-5.4-27.7,11.3-54.6,38.5-62.4C60.4,15.8,64.6,15.4,68.6,14.6z M29.1,112.8
			c5.6-1.8,10.7-3.5,15.7-4.9c1-0.3,2.4-0.1,3.3,0.4c12.6,7.1,25.7,8.6,39.3,3.6c18.4-6.7,30.5-24.6,29.8-43.7
			c-0.7-19.9-13.8-37-32.6-42.5C66.3,20.2,46.4,26.9,35,42.2c-11.4,15.5-12,35.8-1.3,52c0.8,1.3,0.9,2.3,0.4,3.7
			C32.4,102.7,30.9,107.4,29.1,112.8z"/>
		<path class="st0" d="M53.5,42.2c4.6,0.5,4.6,0.5,6.2,4.5c1.1,2.9,2.1,5.8,3.3,8.6c0.9,2.3-0.3,3.8-1.6,5.4
			c-3.5,4.1-3.5,4.1-0.5,8.5c4,6,9.3,10.5,15.9,13.6c1.7,0.8,3,0.7,4.1-0.8c1-1.3,2.3-2.4,3.2-3.8c1.3-1.9,2.7-2.1,4.7-1
			c3.2,1.8,6.5,3.3,9.6,5.2c0.8,0.5,1.6,1.9,1.5,2.9c-0.1,5.2-3.2,8.3-7.8,10.1c-3.2,1.2-6.4,1.4-9.7,0.4
			c-17.8-5-29.5-16.9-36.7-33.5c-2.8-6.5-1-13.5,4-18C50.7,43.4,52.2,42.9,53.5,42.2z"/>
	</g>
</g>
</svg>
